<mxfile host="app.diagrams.net" modified="2023-08-20T08:32:32.064Z" agent="Mozilla/5.0 (X11; Linux x86_64) AppleWebKit/537.36 (KHTML, like Gecko) Chrome/114.0.0.0 Safari/537.36" etag="qKCrQkmIj6_BOnVC2H2S" version="21.6.8" type="github">
  <diagram name="Strona-1" id="3kCaJhsZH5ZPdCVRugP8">
    <mxGraphModel dx="2261" dy="1967" grid="1" gridSize="10" guides="1" tooltips="1" connect="1" arrows="1" fold="1" page="1" pageScale="1" pageWidth="827" pageHeight="1169" math="0" shadow="0">
      <root>
        <mxCell id="0" />
        <mxCell id="1" parent="0" />
        <mxCell id="ObyLWbFPhNjYNBy1AQXe-1" value="" style="whiteSpace=wrap;html=1;aspect=fixed;" vertex="1" parent="1">
          <mxGeometry x="-60" y="-60" width="860" height="860" as="geometry" />
        </mxCell>
        <mxCell id="ObyLWbFPhNjYNBy1AQXe-2" value="" style="rounded=0;whiteSpace=wrap;html=1;" vertex="1" parent="1">
          <mxGeometry x="-50" y="-40" width="840" height="300" as="geometry" />
        </mxCell>
        <mxCell id="ObyLWbFPhNjYNBy1AQXe-3" value="" style="rounded=0;whiteSpace=wrap;html=1;" vertex="1" parent="1">
          <mxGeometry x="-50" y="270" width="840" height="520" as="geometry" />
        </mxCell>
      </root>
    </mxGraphModel>
  </diagram>
</mxfile>
